<svg version="1" xmlns="http://www.w3.org/2000/svg" width="2777.333" height="2777.333" viewBox="0 0 2083.000000 2083.000000"><path d="M1116.8.5c-.2.2-6.5.6-14.2.9-7.6.4-16.4.8-19.5 1.1-3.1.2-9 .7-13.1 1-16 1.2-20.8 1.7-32.5 3-2.2.2-6.7.7-10 1-3.3.4-7.3.8-9 1-1.6.3-8.4 1.2-15 2-12.5 1.7-17.5 2.4-20.5 3-1 .2-4 .6-6.7 1-2.6.4-7.9 1.3-11.8 2-3.8.7-8.8 1.6-11 1.9-2.2.3-5.1.8-6.5 1.1-4.6.9-18.5 3.6-21.5 4.2-1.6.2-8.8 1.8-16 3.5-7.1 1.6-14.1 3.2-15.5 3.4-15.8 3-93.9 25.4-105.5 30.4-1.1.4-4.9 1.8-8.5 3-3.6 1.2-7.4 2.6-8.5 3-1.1.5-9.4 3.6-18.5 7-74.6 28.2-151.4 68.5-217.5 114.4-18.5 12.9-62.7 46.2-65.5 49.5-.3.3-6.1 5.3-13 11.1s-13.2 11.2-14.1 12c-.8.8-6.5 6-12.5 11.5-13.6 12.4-48.3 47.1-58.9 58.9-4.4 4.9-8.5 9.4-9.2 10.1-1.2 1.3-5.6 6.4-13.8 16-2.7 3.2-6 7-7.2 8.4-13.9 16-40.6 51.5-57.5 76.6-28.4 41.8-58.7 95.2-75.8 133-1.2 2.7-3.8 8.4-5.7 12.5-7.3 15.7-21.2 49.4-26.5 64-6.9 18.8-17.8 51-19.2 56.5-.2.5-.6 1.7-.9 2.5-.5 1.5-2 6.6-5.8 20-4.5 16-16.5 65.1-18.4 75-.3 1.4-.9 4.7-1.5 7.5-.6 2.7-1.2 6.1-1.5 7.5-.3 1.4-.9 4.7-1.5 7.5-.5 2.7-1.2 6.6-1.5 8.5-.3 1.9-.7 4.6-1 6-.3 1.4-.7 4-1 5.7-.5 3-.8 5-2 12.3-.2 1.4-.7 4.3-.9 6.5-.5 4.1-1.4 10.2-2.1 14.5-.3 1.4-.7 5-1.1 8-.3 3-.7 6.5-.9 7.8-.2 1.3-.7 5.3-1.1 9-.3 3.7-.8 7.4-.9 8.2-.2.8-.6 5.3-1 10s-.8 9.5-1 10.8c-.2 1.2-.7 6.6-1 12-.4 5.3-.8 11.7-1 14.2-2.1 28.6-2.8 107.7-1.2 138.5 1.3 25.1 2.2 39.1 3.2 47.5.2 1.9.7 6.4 1 10 .7 7.6 1.6 15.6 3 26.7.2 2.1.7 6 1 8.8.7 6.4 1.6 13.3 2.1 16.5.3 1.4 1.3 8.1 2.4 15 1.1 6.9 2.2 13.8 2.5 15.5 2.4 12.4 3.6 19.5 4.1 22.5.3 1.9 2.1 10.7 4 19.5 2 8.8 3.8 17.1 4 18.4.9 4.6 6.3 25.7 10.9 42.6 7.6 28.3 26.4 85.4 32.5 99 .5 1.1 3.8 9.2 7.4 18 3.5 8.8 7.9 19.1 9.6 23 3.1 6.8 5.2 11.5 5.5 12.5.9 2.6 4.3 9.7 14.8 30.8 15 30 23.2 44.9 40.6 74 3.1 5.2 3.5 5.9 13.1 20.9 14.3 22.4 37.8 55.4 53.4 74.9 2.3 2.8 5.3 6.6 6.8 8.5 4.8 6.1 13.3 16.3 18.7 22.4 1.4 1.6 4.3 5 6.5 7.5 25.6 29.7 64.4 68.4 96.1 95.6 4.4 3.8 8.2 7.1 8.5 7.4.3.4 7.3 6 15.5 12.6 52.5 42.1 100.8 74 160.5 106.1 13 7 56.3 28.3 57.5 28.3.2 0 3.5 1.4 7.2 3.1 3.7 1.7 7.7 3.5 8.8 4 1.1.4 4 1.7 6.5 2.7 21 9.2 49.7 20.1 77 29.3 15.5 5.3 48.9 15.6 53 16.4.8.2 1.5.4 1.5.5 0 .1.7.3 1.5.5.8.1 6.9 1.8 13.5 3.5 26.4 7.2 64.9 15.6 93 20.5 8.3 1.4 15.9 2.7 17 2.9 1.1.2 4 .7 6.5 1 2.5.3 5.4.8 6.5 1 1.1.2 4.3.7 7 1 2.8.4 6.4.9 8 1.1 6.9 1 11.3 1.6 15.5 2 2.5.3 6.1.7 8 1 4 .5 10.9 1.2 19 2 3 .4 7.1.8 9 1 1.9.2 7.8.6 13 1s11.1.8 13 1c14.8 1.4 37.9 2 84.5 2 47.1 0 64.4-.4 84.4-2.1 15.8-1.2 19-1.5 22.1-1.9 1.9-.2 6.7-.7 10.5-1 3.9-.3 8.1-.8 9.5-1 1.4-.2 4.8-.6 7.5-1 9.9-1.1 13.1-1.6 17-2.2 2.2-.3 4.9-.7 6-.8 7.4-1 41.4-6.8 46.5-8 1.4-.3 3.6-.8 5-1 12.7-2 53.1-12 80.5-20 8.9-2.6 48.7-15.8 53.5-17.8 1.4-.5 3-1.1 3.5-1.2 1.8-.5 37.8-15.2 44-18 23.9-10.9 34.1-15.8 49.5-23.7 9.6-5 19.2-10.2 21.2-11.4 2.1-1.3 3.9-2.4 4.2-2.4.8 0 28.2-16.3 36.4-21.6 4.5-3 8.7-5.4 9.2-5.4.4 0 1-.3 1.2-.8.2-.4 5.7-4.3 12.3-8.7 11.2-7.4 30.1-20.8 37-26.2 5.9-4.5 8.1-6.2 15.5-11.9 7.4-5.8 28.3-23 35-29 1.9-1.7 8.2-7.3 14-12.4 22.7-20.2 69.4-68.4 88.5-91.5 2.8-3.3 5.7-6.7 6.4-7.5 1.6-1.6 31.2-38.7 34.8-43.6 21.2-28.5 44.3-61.8 53.1-76.5l2.2-3.7-15.2-7.7c-8.4-4.3-25.2-12.8-37.3-19-12.1-6.2-34.1-17.4-49-25-65.4-33.3-79.2-40.3-98-50-11-5.6-33.9-17.3-51-26-17-8.7-35.6-18.2-41.2-21.1l-10.2-5.2-7.6 12.4c-4.2 6.9-8.7 14.1-10.1 16.2-1.3 2-3 4.5-3.7 5.6-3.3 5-20.5 28.7-24 33.1-22.3 27.4-35.7 42-58.3 63.5-7.1 6.7-10.8 10-25.8 23.1-12 10.4-34.5 27.2-53.1 39.6-32.8 22-70.8 42.1-105 55.8-6.6 2.6-13.5 5.4-15.4 6.2-12.4 5.5-69.4 22.3-84.1 24.8-1.9.3-8 1.5-13.5 2.5-5.5 1.1-11.6 2.2-13.5 2.5-1.9.3-4.6.7-6 1-1.4.2-4.5.7-7 1-2.5.3-7.6 1-11.5 1.5-10.6 1.4-16.2 1.9-41 3.5-6.7.5-53.3.5-61 .1-16.4-1-28.4-1.7-31.5-2.1-1.9-.2-6.4-.7-10-1-3.6-.4-8.1-.8-10-1.1-1.9-.2-5.7-.7-8.5-.9-2.7-.3-6.1-.7-7.5-1-1.4-.2-4.5-.6-7-1-11.4-1.7-15.2-2.3-21.5-3.5-2.7-.5-6.3-1.2-8-1.5-3.4-.5-5.7-1-13.1-2.5-2.8-.6-6.2-1.3-7.5-1.5-1.4-.3-12.1-3-23.9-6-11.8-3.1-22.2-5.7-23.1-5.9-10.5-2.6-62.7-21.5-76.4-27.6-44-19.9-68.5-33.1-103.5-55.8-11.7-7.6-34.1-24-47.5-34.7-39.4-31.5-71.1-63.3-105.2-105.5-8.9-10.9-20-26.3-31.6-43.5-4.8-7.1-9.2-13.5-9.7-14.2-.6-.7-1-1.7-1-2.3 0-.5-.4-1-1-1-.5 0-1-.4-1-.9s-3.7-7.1-8.3-14.7c-40-66.6-71.1-148.2-87.2-228.1-3.7-18.6-3.9-19.6-5-26.6-.3-1.5-.7-3.9-1-5.5-.8-5.1-2.2-14.7-3-20.2-.2-1.4-.6-4.3-.9-6.5-.8-5.2-1.3-9.7-2.1-17.6-.3-3.5-.8-7.8-1-9.4-.2-1.7-.7-7.3-1-12.5-.4-5.2-.9-11.1-1.1-13-.9-8.1-1.8-42.1-1.8-63 .1-28.6 1.6-59.8 3.9-81 .2-2.5.7-7 1-10 .4-3 .8-6.6 1-8 .2-1.4.6-5.2 1-8.5.3-3.3.8-6.7 1-7.5.2-.8.6-3.8 1-6.5.3-2.8 1.4-10 2.5-16 1-6.1 2.2-12.5 2.5-14.2.6-3.9 4.5-23.1 5-25.3.2-.8 1.3-5.3 2.4-10 11.6-49.3 26.7-94.3 47.2-140 8-17.9 30-59.7 38.4-73 29-45.9 50.8-75.2 79.3-106.4 8.1-8.9 38.4-38.9 47.2-46.8 36.8-33.1 78.1-62.1 126.3-88.7 31.7-17.5 74.4-35.6 113.7-48.2 14.6-4.7 44.5-13 53.4-14.9 2.3-.4 10.6-2.2 18.6-3.9 8-1.7 16.4-3.3 18.5-3.6 2.2-.3 4.5-.8 5.2-1 .6-.2 3.8-.7 7-1.1 3.2-.3 6.1-.8 6.4-1 .3-.2 3.2-.6 6.4-1 3.2-.3 6.7-.7 7.8-1 1.1-.2 4.5-.6 7.6-.9 3.1-.4 6.7-.8 8.1-1.1 1.4-.2 6.1-.6 10.5-1 4.4-.3 9.6-.8 11.5-1 24.3-2.5 85.7-2.5 111.5.1 7.4.7 15 1.6 17.5 2 1.4.2 4.8.6 7.5 1 5.5.6 23.7 3.6 30.5 5 9.8 1.9 15.2 3.1 27.5 6.2 7.7 1.9 14.9 3.6 15.9 3.9 2 .4 8.2 2.3 24.6 7.6 48 15.4 95 37.7 139.5 66.1 70.2 44.8 132.2 105.8 176.4 173.3 5.8 8.9 11.8 18.3 13.4 20.8l2.7 4.7 29.8-15.2c79.3-40.5 104.7-53.5 155.2-79.2 15.7-8 39.5-20.1 53-27 13.5-6.9 33.2-16.9 43.8-22.3 10.6-5.4 19.5-10.1 19.7-10.4.2-.4-1.5-3.5-3.7-7.1-9.3-14.5-25-37.9-30.7-45.9-3.3-4.7-6.7-9.4-7.5-10.5-21.7-30.4-51.3-66.8-79.6-98-7.4-8.1-47.8-48.5-56.5-56.5-27.3-25-62.6-53.5-90.5-73.1-6.2-4.4-37.5-25.1-41.5-27.6-33.2-19.9-44.4-26.2-70.5-39.2-19.9-9.9-43.1-20.5-57.5-26.1-4.4-1.8-9.3-3.8-11-4.5-1.6-.7-9.5-3.7-17.5-6.5-8-2.9-15.4-5.6-16.5-6.1-2.9-1.2-21.5-7.2-32-10.4-4.9-1.4-10.4-3.1-12.1-3.6-1.7-.5-4-1.2-5-1.4-29-7.4-52-13.2-52.4-13.3-.3 0-7.2-1.4-15.5-3.1-8.2-1.6-17.7-3.5-21-4-3.3-.6-7.3-1.3-9-1.6-1.6-.3-4.6-.8-6.5-1.1-1.9-.2-5.7-.9-8.5-1.4-2.7-.5-7.5-1.2-10.5-1.6-3-.3-6.2-.8-7-.9-.8-.2-4-.6-7.1-.9-3.1-.4-6.5-.8-7.5-1-1.1-.2-5-.7-8.9-1.1-3.8-.3-8.3-.8-10-1-1.6-.2-6.1-.7-10-1-3.8-.3-9.2-.8-12-1-2.7-.2-9-.7-14-1.1-4.9-.3-12.1-.8-16-1.1-7.8-.5-108.2-1.3-108.7-.8z"/></svg>