<?xml version="1.0" encoding="utf-8"?>
<!-- Generator: Adobe Illustrator 19.0.0, SVG Export Plug-In . SVG Version: 6.00 Build 0)  -->
<svg version="1.1" id="Layer_2" xmlns="http://www.w3.org/2000/svg" xmlns:xlink="http://www.w3.org/1999/xlink" x="0px" y="0px"
	 viewBox="0 0 304.4 136.7" style="enable-background:new 0 0 304.4 136.7;" xml:space="preserve">
<style type="text/css">
	.st0{fill:#FAFAFA;}
</style>
<g id="XMLID_4_">
	<path id="XMLID_5_" class="st0" d="M70.3,129.9c-7.2,4.5-15.3,6.8-24.4,6.8c-12.6,0-23.3-4.5-32.3-13.5S0,103.4,0,90.8
		c0-12.7,4.6-23.4,13.6-32.3c9-9.1,19.7-13.6,32.3-13.6c12.7,0,23.5,4.5,32.5,13.6c9,8.9,13.5,19.6,13.5,32.3v45.9H70.3V129.9z
		 M28.9,73.9c-4.6,4.7-6.9,10.4-6.9,17c0,6.5,2.3,12.2,6.9,17c4.8,4.7,10.4,7,17,7c6.6,0,12.4-2.3,17.1-7c4.7-4.8,7-10.4,7-17
		c0-6.6-2.3-12.3-7-17c-4.7-4.7-10.4-7-17.1-7C39.3,66.8,33.7,69.2,28.9,73.9z"/>
	<path id="XMLID_8_" class="st0" d="M147.4,51.3h-17.7v85.5h-20.5V51.3h-7.4c-5.7,0-10.3-4.6-10.3-10.3v0c0-5.7,4.6-10.3,10.3-10.3
		h7.4V10.3c0-5.7,4.6-10.3,10.3-10.3h0c5.7,0,10.3,4.6,10.3,10.3v20.4h17.7V51.3z"/>
	<path id="XMLID_10_" class="st0" d="M204.7,51.3h-7.4v85.5h-20.5V51.3h-17.7V30.7h17.7V10.3c0-5.7,4.6-10.3,10.3-10.3h0
		c5.7,0,10.3,4.6,10.3,10.3v20.4h7.4c5.7,0,10.3,4.6,10.3,10.3v0C215,46.6,210.4,51.3,204.7,51.3z"/>
	<path id="XMLID_12_" class="st0" d="M226.2,123.3c-9-9-13.6-19.8-13.6-32.4c0-12.7,4.6-23.4,13.6-32.3c9-9.1,19.7-13.6,32.3-13.6
		c12.7,0,23.4,4.5,32.4,13.6c9,8.9,13.5,19.6,13.5,32.3c0,12.6-4.5,23.4-13.5,32.4c-9,9-19.7,13.5-32.4,13.5
		C245.9,136.7,235.2,132.2,226.2,123.3z M241.6,73.9c-4.6,4.7-6.9,10.4-6.9,17c0,6.5,2.3,12.2,6.9,17c4.8,4.7,10.4,7,17,7
		c6.6,0,12.3-2.3,17-7c4.7-4.8,7-10.4,7-17c0-6.6-2.3-12.3-7-17c-4.7-4.7-10.4-7-17-7C252,66.8,246.3,69.2,241.6,73.9z"/>
</g>
<g id="XMLID_168_">
</g>
<g id="XMLID_169_">
</g>
<g id="XMLID_170_">
</g>
<g id="XMLID_171_">
</g>
<g id="XMLID_172_">
</g>
<g id="XMLID_173_">
</g>
<g id="XMLID_174_">
</g>
<g id="XMLID_175_">
</g>
<g id="XMLID_176_">
</g>
<g id="XMLID_177_">
</g>
<g id="XMLID_178_">
</g>
<g id="XMLID_179_">
</g>
<g id="XMLID_180_">
</g>
<g id="XMLID_181_">
</g>
<g id="XMLID_182_">
</g>
</svg>
