<?xml version="1.0" encoding="utf-8"?>
<!-- Generator: Adobe Illustrator 19.0.0, SVG Export Plug-In . SVG Version: 6.00 Build 0)  -->
<svg version="1.1" id="Layer_1" xmlns="http://www.w3.org/2000/svg" xmlns:xlink="http://www.w3.org/1999/xlink" x="0px" y="0px"
	 viewBox="0 0 500 500" style="enable-background:new 0 0 500 500;" xml:space="preserve">
<style type="text/css">
	.st0{fill:#FFFFFF;}
</style>
<g id="XMLID_1_">
	<path id="XMLID_27_" d="M0.2,109.8c167.1,0,333.4,0,499.6,0c0-23.9,0-46.7,0-69.9c-167,0-332.9,0-499.6,0
		C0.2,63.7,0.2,86.5,0.2,109.8z M0,390.3c0,24,0,46.4,0,69.8c166.9,0,333.2,0,500,0c0-23.5,0-46.3,0-69.8
		C333.2,390.3,167.3,390.3,0,390.3z M0.2,284.9c167.1,0,333.3,0,499.9,0c0-23.6,0-46,0-69c-167,0-333.3,0-499.9,0
		C0.2,239.4,0.2,261.8,0.2,284.9z"/>
	<path id="XMLID_26_" class="st0" d="M0.2,109.8c0-23.4,0-46.2,0-69.9c166.7,0,332.7,0,499.6,0c0,23.2,0,46,0,69.9
		C333.6,109.8,167.3,109.8,0.2,109.8z"/>
	<path id="XMLID_25_" class="st0" d="M0,390.3c167.3,0,333.2,0,500,0c0,23.5,0,46.3,0,69.8c-166.8,0-333.1,0-500,0
		C0,436.7,0,414.2,0,390.3z"/>
	<path id="XMLID_24_" class="st0" d="M0.2,284.9c0-23,0-45.5,0-69c166.7,0,332.9,0,499.9,0c0,23,0,45.4,0,69
		C333.5,284.9,167.2,284.9,0.2,284.9z"/>
</g>
</svg>
