<?xml version="1.0" encoding="utf-8"?>
<!-- Generator: Adobe Illustrator 19.0.0, SVG Export Plug-In . SVG Version: 6.00 Build 0)  -->
<svg version="1.1" id="Layer_1" xmlns="http://www.w3.org/2000/svg" xmlns:xlink="http://www.w3.org/1999/xlink" x="0px" y="0px"
	 viewBox="-419 271 1080 1080" style="enable-background:new -419 271 1080 1080;" xml:space="preserve">
<style type="text/css">
	.st0{fill:#60B294;}
	.st1{fill:#90C294;}
	.st2{fill:#C0D294;}
</style>
<path id="XMLID_6_" class="st0" d="M-419,811c0-298.2,241.8-540,540-540s540,241.8,540,540"/>
<path id="XMLID_5_" class="st1" d="M-293.5,811c0-229.2,185.8-415,415-415s415,185.8,415,415"/>
<path id="XMLID_2_" class="st2" d="M-118.5,811c0-132.5,107.5-240,240-240s240,107.5,240,240"/>
<path id="XMLID_1_" class="st0" d="M661,811c0,298.2-241.8,540-540,540s-540-241.8-540-540"/>
<path id="XMLID_3_" class="st1" d="M536.5,811c0,229.2-185.8,415-415,415s-415-185.8-415-415"/>
<path id="XMLID_4_" class="st2" d="M361.5,811c0,132.5-107.5,240-240,240s-240-107.5-240-240"/>
</svg>
