<?xml version="1.0" encoding="utf-8"?>
<!-- Generator: Adobe Illustrator 19.0.0, SVG Export Plug-In . SVG Version: 6.00 Build 0)  -->
<svg version="1.1" id="Layer_1" xmlns="http://www.w3.org/2000/svg" xmlns:xlink="http://www.w3.org/1999/xlink" x="0px" y="0px"
	 viewBox="-289 261.2 380.6 38.8" style="enable-background:new -289 261.2 380.6 38.8;" xml:space="preserve">
<style type="text/css">
	.st0{fill:#444444;}
</style>
<polygon class="st0" points="-257,286.4 -264.8,286.4 -264.8,293.5 -275.7,293.5 -275.7,293 -275.7,293 -275.7,267.7 -270.6,267.7 
	-270.6,261.2 -289,261.2 -289,267.7 -284.3,267.7 -284.3,268.2 -284.3,268.2 -284.3,293.5 -289,293.5 -289,300 -257,300 "/>
<polygon class="st0" points="-220.4,286.6 -228.2,286.6 -228.2,293.5 -240.3,293.5 -240.3,293 -240.3,293 -240.3,283.1 
	-230.7,283.1 -230.7,277 -240.3,277 -240.3,276.5 -240.3,276.5 -240.3,267.4 -228.6,267.4 -228.6,267.9 -228.6,267.9 -228.6,273.6 
	-220.8,273.6 -220.8,261.2 -253.6,261.2 -253.6,267.4 -248.9,267.4 -248.9,268 -248.8,268 -248.8,293.5 -253.6,293.5 -253.6,300 
	-220.4,300 "/>
<polygon class="st0" points="-180.1,261.2 -216.4,261.2 -216.4,274.9 -209,274.9 -209,267.4 -202.5,267.4 -202.5,267.9 
	-202.5,267.9 -202.5,293.5 -207.6,293.5 -207.6,300 -188.9,300 -188.9,293.5 -193.9,293.5 -193.9,292.9 -194,292.9 -194,267.4 
	-187.5,267.4 -187.5,267.9 -187.5,267.9 -187.5,274.9 -180.1,274.9 "/>
<polygon class="st0" points="-140.5,261.2 -176.8,261.2 -176.8,274.9 -169.4,274.9 -169.4,267.4 -163,267.4 -163,267.9 -163,267.9 
	-163,293.5 -168,293.5 -168,300 -149.3,300 -149.3,293.5 -154.4,293.5 -154.4,292.9 -154.4,292.9 -154.4,267.4 -148,267.4 
	-148,267.9 -147.9,267.9 -147.9,274.9 -140.5,274.9 "/>
<polygon class="st0" points="-103.6,286.6 -111.4,286.6 -111.4,293.5 -123.4,293.5 -123.4,293 -123.5,293 -123.5,283.1 
	-113.9,283.1 -113.9,277 -123.4,277 -123.4,276.5 -123.5,276.5 -123.5,267.4 -111.8,267.4 -111.8,267.9 -111.8,267.9 -111.8,273.6 
	-104,273.6 -104,261.2 -136.7,261.2 -136.7,267.4 -132,267.4 -132,268 -132,268 -132,293.5 -136.7,293.5 -136.7,300 -103.6,300 "/>
<path class="st0" d="M-69.9,300h8.1v-6.6h-4.1c0-0.9-0.1-2.1-0.2-3.1c0-0.4,0-0.9,0-1.3c-0.2-5.5-1.8-6.9-5.7-7.7v-0.1
	c0.3-0.1,0.7-0.1,1-0.2c-0.3-0.1-0.6-0.2-1-0.2v-0.1c4.6-0.8,6.3-2.3,6.3-9.3c0-0.6,0-1.1,0-1.7c-0.2-3.7-0.8-5.3-2.2-6.7
	c-1.3-1.3-3.3-1.8-6.3-1.8h-25.4v6.2h4.7v0.5l0,0v25.5h-4.7v6.5h18.2v-6.5h-4.9v-0.5l0,0v-9.1h6.3c2,0,2.8,0.2,3.5,0.9
	c0.6,0.7,0.9,1.5,1,4.6c0,0.1,0,0.3,0,0.4v0.1c0,0.3,0,0.7,0,1c0.2,5.9,0.7,7.3,1.5,8C-73.1,299.6-72.2,300-69.9,300z M-75.5,277.3
	c-0.3,0.3-0.9,0.5-2.6,0.5h-8.1v-0.6l0,0v-9.8h8.1c1.7,0,2.2,0.2,2.6,0.5c0.4,0.5,0.6,1.2,0.7,3c0,0.5,0,1.2,0,2
	C-74.8,275.9-75,276.8-75.5,277.3z"/>
<path class="st0" d="M-27.1,298c1.7-1.6,2.6-3.7,2.6-8.8c0-0.3,0-0.5,0-0.8c-0.3-5.2-2.2-7-6.1-7.8v-0.1c0.3-0.1,0.5-0.2,0.8-0.2
	c-0.3-0.1-0.5-0.1-0.8-0.2V280c3.8-1.1,5.8-3.1,5.8-9c0-0.4,0-0.8,0-1.2c-0.2-3.4-0.9-5.3-2.3-6.7c-1.4-1.3-3.2-1.8-6.3-1.8H-59v6.3
	h4.7v0.5l0,0v25.4H-59v6.5h25.6C-30.6,300-28.5,299.4-27.1,298z M-45.8,267.4h8.9c1.4,0,1.8,0.2,2.1,0.5c0.4,0.4,0.6,1.1,0.7,3.2
	c0,0.4,0,0.9,0,1.5c0,2.9-0.2,3.9-0.7,4.4c-0.3,0.3-0.9,0.4-2.1,0.4h-8.9v-0.5l0,0V267.4z M-34.5,293.3c-0.4,0.4-0.9,0.5-2.3,0.5
	h-9.1v-0.5l0,0v-10.2h9.1c1.4,0,1.8,0.1,2.2,0.4c0.4,0.4,0.7,1,0.7,3.2c0,0.6,0,1.3,0,2.1C-33.8,292.3-34.1,292.9-34.5,293.3z"/>
<path class="st0" d="M-11.5,299.9H1.6c3.8,0,5.2-0.5,6.6-1.8c2.1-2.1,3.1-5.6,3.1-17.8c0-2.1,0-4-0.1-5.6c-0.3-7.3-1.3-10-3-11.6
	c-1.3-1.3-2.8-1.8-6.6-1.8h-13.1c-3.7,0-5.2,0.5-6.6,1.8c-2.1,2-3.1,5.6-3.1,17.8c0,2.1,0,4,0.1,5.6c0.3,7.3,1.3,10,3,11.6
	C-16.7,299.4-15.2,299.9-11.5,299.9z M-11.2,268.3c0.4-0.3,0.8-0.5,2.6-0.5h7.4c1.7,0,2.2,0.1,2.5,0.5c0.3,0.3,0.5,1,0.6,4.1
	c0.1,1.8,0.1,4.4,0.1,8.4c0,10-0.2,11.5-0.7,12c-0.3,0.4-0.8,0.5-2.5,0.5h-7.4c-1.7,0-2.2-0.1-2.6-0.5c-0.3-0.3-0.5-1-0.6-4.3
	c-0.1-1.8-0.1-4.4-0.1-8.3C-11.9,270.2-11.6,268.8-11.2,268.3z"/>
<polygon class="st0" points="53.2,293.5 49.3,293.5 39.7,280.3 39.9,280 39.7,279.7 49,267.7 52.8,267.7 52.8,261.2 36,261.2 
	36,267.4 39.7,267.4 39.3,267.9 39.8,267.9 34.1,276 33.6,276 28.3,267.9 28.6,267.9 28.2,267.4 32.1,267.4 32.1,261.2 14.3,261.2 
	14.3,267.7 18.1,267.7 27.5,280.4 27.3,280.7 27.5,281 17.6,293.5 13.8,293.5 13.8,300 31,300 31,293.8 26.8,293.8 27.2,293.3 
	26.8,293.3 32.8,284.8 33.4,284.8 39.1,293.3 38.8,293.3 39.1,293.8 34.8,293.8 34.8,300 53.2,300 "/>
<path class="st0" d="M87.8,297.1c2.5-2.5,3.8-7,3.8-16.8c0-1.1,0-2.2-0.1-3.2c-0.3-7.3-1.6-10.9-3.7-13.1c-2.1-2.1-4.8-2.8-9.9-2.8
	H56.2v6.5h4.7v0.5l0,0v25.3h-4.7v6.5h21.7C82.9,300,85.6,299.2,87.8,297.1z M69.5,293.5V293l0,0v-25.3h7.2c2.4,0,3.4,0.2,4.2,1
	c0.8,0.8,1.2,2.2,1.3,6.5c0.1,1.5,0.1,3.3,0.1,5.7c0,8.4-0.3,10.6-1.4,11.6c-0.9,0.8-1.8,1-4.2,1C76.7,293.5,69.5,293.5,69.5,293.5z
	"/>
</svg>
