<?xml version="1.0" encoding="utf-8"?>
<!-- Generator: Adobe Illustrator 19.0.0, SVG Export Plug-In . SVG Version: 6.00 Build 0)  -->
<svg version="1.1" id="Layer_1" xmlns="http://www.w3.org/2000/svg" xmlns:xlink="http://www.w3.org/1999/xlink" x="0px" y="0px"
	 viewBox="0 0 103.6 38.2" style="enable-background:new 0 0 103.6 38.2;" xml:space="preserve">
<style type="text/css">
	.Arched_x0020_Green{fill:url(#SVGID_1_);stroke:#FFFFFF;stroke-width:0.25;stroke-miterlimit:1;}
	.st0{fill:#6ACB40;}
	.st1{fill:#FE9941;}
	.st2{fill:#6C710F;}
	.st3{fill:#9CCDFE;}
	.st4{fill:#45943D;}
</style>
<linearGradient id="SVGID_1_" gradientUnits="userSpaceOnUse" x1="-31.1831" y1="167.6899" x2="-30.476" y2="166.9828">
	<stop  offset="0" style="stop-color:#1EAB4B"/>
	<stop  offset="0.9831" style="stop-color:#19361A"/>
</linearGradient>
<path class="st0" d="M68.1,9.3C64.8,3.7,58.7,0,51.8,0c-7,0-13,3.7-16.4,9.3c1.7,2.9,2.7,6.2,2.7,9.8c0,3.6-1,6.9-2.7,9.8
	c3.3,5.6,9.4,9.3,16.4,9.3c7,0,13-3.7,16.4-9.3c-1.7-2.9-2.7-6.2-2.7-9.8C65.4,15.5,66.4,12.2,68.1,9.3z"/>
<path class="st1" d="M35.4,9.3C32.1,3.7,26,0,19.1,0C8.5,0,0,8.5,0,19.1c0,10.5,8.5,19.1,19.1,19.1c7,0,13-3.7,16.4-9.3
	c-1.7-2.9-2.7-6.2-2.7-9.8C32.7,15.5,33.7,12.2,35.4,9.3z"/>
<path class="st2" d="M35.4,9.3c-1.7,2.9-2.7,6.2-2.7,9.8c0,3.6,1,6.9,2.7,9.8c1.7-2.9,2.7-6.2,2.7-9.8C38.2,15.5,37.1,12.2,35.4,9.3
	z"/>
<path class="st3" d="M84.5,0c-7,0-13,3.7-16.4,9.3c1.7,2.9,2.7,6.2,2.7,9.8c0,3.6-1,6.9-2.7,9.8c3.3,5.6,9.4,9.3,16.4,9.3
	c10.5,0,19.1-8.5,19.1-19.1C103.6,8.5,95,0,84.5,0z"/>
<path class="st4" d="M68.1,9.3c-1.7,2.9-2.7,6.2-2.7,9.8c0,3.6,1,6.9,2.7,9.8c1.7-2.9,2.7-6.2,2.7-9.8C70.9,15.5,69.9,12.2,68.1,9.3
	z"/>
</svg>
