<?xml version="1.0" encoding="utf-8"?>
<!-- Generator: Adobe Illustrator 19.0.0, SVG Export Plug-In . SVG Version: 6.00 Build 0)  -->
<svg version="1.1" id="Layer_1" xmlns="http://www.w3.org/2000/svg" xmlns:xlink="http://www.w3.org/1999/xlink" x="0px" y="0px"
	 viewBox="0 0 508.4 38.8" style="enable-background:new 0 0 508.4 38.8;" xml:space="preserve">
<style type="text/css">
	.Arched_x0020_Green{fill:url(#SVGID_1_);stroke:#FFFFFF;stroke-width:0.25;stroke-miterlimit:1;}
	.st0{fill:#020202;}
	.st1{fill:#6ACB40;}
	.st2{fill:#FE9941;}
	.st3{fill:#6C710F;}
	.st4{fill:#9CCDFE;}
	.st5{fill:#45943D;}
</style>
<linearGradient id="SVGID_1_" gradientUnits="userSpaceOnUse" x1="-31.1831" y1="168.1875" x2="-30.476" y2="167.4804">
	<stop  offset="0" style="stop-color:#1EAB4B"/>
	<stop  offset="0.9831" style="stop-color:#19361A"/>
</linearGradient>
<polygon class="st0" points="159.8,25.2 152,25.2 152,32.3 141.1,32.3 141.1,31.8 141.1,31.8 141.1,6.5 146.2,6.5 146.2,0 127.8,0 
	127.8,6.5 132.5,6.5 132.5,7 132.5,7 132.5,32.3 127.8,32.3 127.8,38.8 159.8,38.8 "/>
<polygon class="st0" points="196.4,25.4 188.6,25.4 188.6,32.3 176.5,32.3 176.5,31.8 176.5,31.8 176.5,21.9 186,21.9 186,15.8 
	176.5,15.8 176.5,15.3 176.5,15.3 176.5,6.2 188.2,6.2 188.2,6.7 188.2,6.7 188.2,12.4 196,12.4 196,0 163.2,0 163.2,6.2 167.9,6.2 
	167.9,6.8 167.9,6.8 167.9,32.3 163.2,32.3 163.2,38.8 196.4,38.8 "/>
<polygon class="st0" points="236.7,0 200.4,0 200.4,13.7 207.8,13.7 207.8,6.2 214.2,6.2 214.2,6.7 214.3,6.7 214.3,32.3 
	209.2,32.3 209.2,38.8 227.9,38.8 227.9,32.3 222.8,32.3 222.8,31.7 222.8,31.7 222.8,6.2 229.3,6.2 229.3,6.7 229.3,6.7 
	229.3,13.7 236.7,13.7 "/>
<polygon class="st0" points="276.2,0 240,0 240,13.7 247.4,13.7 247.4,6.2 253.8,6.2 253.8,6.7 253.8,6.7 253.8,32.3 248.7,32.3 
	248.7,38.8 267.5,38.8 267.5,32.3 262.4,32.3 262.4,31.7 262.4,31.7 262.4,6.2 268.8,6.2 268.8,6.7 268.8,6.7 268.8,13.7 
	276.2,13.7 "/>
<polygon class="st0" points="313.2,25.4 305.4,25.4 305.4,32.3 293.3,32.3 293.3,31.8 293.3,31.8 293.3,21.9 302.9,21.9 302.9,15.8 
	293.3,15.8 293.3,15.3 293.3,15.3 293.3,6.2 305,6.2 305,6.7 305,6.7 305,12.4 312.8,12.4 312.8,0 280,0 280,6.2 284.7,6.2 
	284.7,6.8 284.8,6.8 284.8,32.3 280,32.3 280,38.8 313.2,38.8 "/>
<path class="st0" d="M346.9,38.8h8.1v-6.6h-4.1c0-0.9-0.1-2.1-0.2-3.1c0-0.4,0-0.9,0-1.3c-0.2-5.5-1.8-6.9-5.7-7.7V20
	c0.3-0.1,0.7-0.1,1-0.2c-0.3-0.1-0.6-0.2-1-0.2v-0.1c4.6-0.8,6.3-2.3,6.3-9.3c0-0.6,0-1.1,0-1.7c-0.2-3.7-0.8-5.3-2.2-6.7
	c-1.3-1.3-3.3-1.8-6.3-1.8h-25.4v6.2h4.7v0.5h0v25.5h-4.7v6.5h18.2v-6.5h-4.9v-0.5h0v-9.1h6.3c2,0,2.8,0.2,3.5,0.9
	c0.6,0.7,0.9,1.5,1,4.6c0,0.1,0,0.3,0,0.4c0,0,0,0.1,0,0.1c0,0.3,0,0.7,0,1c0.2,5.9,0.7,7.3,1.5,8C343.7,38.4,344.5,38.8,346.9,38.8
	z M341.3,16.1c-0.3,0.3-0.9,0.5-2.6,0.5h-8.1V16h0V6.2h8.1c1.7,0,2.2,0.2,2.6,0.5c0.4,0.5,0.6,1.2,0.7,3c0,0.5,0,1.2,0,2
	C342,14.7,341.8,15.6,341.3,16.1z"/>
<path class="st0" d="M389.7,36.8c1.7-1.6,2.6-3.7,2.6-8.8c0-0.3,0-0.5,0-0.8c-0.3-5.2-2.2-7-6.1-7.8v-0.1c0.3-0.1,0.5-0.2,0.8-0.2
	c-0.3-0.1-0.5-0.1-0.8-0.2v-0.1c3.8-1.1,5.8-3.1,5.8-9c0-0.4,0-0.8,0-1.2c-0.2-3.4-0.9-5.3-2.3-6.7c-1.4-1.3-3.2-1.8-6.3-1.8h-25.6
	v6.3h4.7v0.5h0v25.4h-4.7v6.5h25.6C386.2,38.8,388.3,38.2,389.7,36.8z M370.9,6.2h8.9c1.4,0,1.8,0.2,2.1,0.5
	c0.4,0.4,0.6,1.1,0.7,3.2c0,0.4,0,0.9,0,1.5c0,2.9-0.2,3.9-0.7,4.4c-0.3,0.3-0.9,0.4-2.1,0.4H371v-0.5h0V6.2z M382.3,32.1
	c-0.4,0.4-0.9,0.5-2.3,0.5H371v-0.5h0V21.9h9.1c1.4,0,1.8,0.1,2.2,0.4c0.4,0.4,0.7,1,0.7,3.2c0,0.6,0,1.3,0,2.1
	C383,31.1,382.7,31.7,382.3,32.1z"/>
<path class="st0" d="M405.3,38.7h13.1c3.8,0,5.2-0.5,6.6-1.8c2.1-2.1,3.1-5.6,3.1-17.8c0-2.1,0-4-0.1-5.6c-0.3-7.3-1.3-10-3-11.6
	c-1.3-1.3-2.8-1.8-6.6-1.8h-13.1c-3.7,0-5.2,0.5-6.6,1.8c-2.1,2-3.1,5.6-3.1,17.8c0,2.1,0,4,0.1,5.6c0.3,7.3,1.3,10,3,11.6
	C400,38.2,401.6,38.7,405.3,38.7z M405.6,7.1c0.4-0.3,0.8-0.5,2.6-0.5h7.4c1.7,0,2.2,0.1,2.5,0.5c0.3,0.3,0.5,1,0.6,4.1
	c0.1,1.8,0.1,4.4,0.1,8.4c0,10-0.2,11.5-0.7,12c-0.3,0.4-0.8,0.5-2.5,0.5h-7.4c-1.7,0-2.2-0.1-2.6-0.5c-0.3-0.3-0.5-1-0.6-4.3
	c-0.1-1.8-0.1-4.4-0.1-8.3C404.9,9,405.2,7.6,405.6,7.1z"/>
<polygon class="st0" points="469.9,32.3 466.1,32.3 456.5,19.1 456.7,18.8 456.5,18.5 465.7,6.5 469.6,6.5 469.6,0 452.8,0 
	452.8,6.2 456.5,6.2 456.1,6.7 456.5,6.7 450.9,14.8 450.4,14.8 445.1,6.7 445.4,6.7 445,6.2 448.9,6.2 448.9,0 431,0 431,6.5 
	434.9,6.5 444.2,19.2 444,19.5 444.3,19.8 434.4,32.3 430.6,32.3 430.6,38.8 447.8,38.8 447.8,32.6 443.6,32.6 444,32.1 443.6,32.1 
	449.6,23.6 450.2,23.6 455.9,32.1 455.6,32.1 455.9,32.6 451.6,32.6 451.6,38.8 469.9,38.8 "/>
<path class="st0" d="M504.6,35.9c2.5-2.5,3.8-7,3.8-16.8c0-1.1,0-2.2-0.1-3.2c-0.3-7.3-1.6-10.9-3.7-13.1c-2.1-2.2-4.8-2.9-9.9-2.9
	H473v6.5h4.7V7h0v25.3H473v6.5h21.7C499.7,38.8,502.4,38,504.6,35.9z M486.3,32.3v-0.5h0V6.5h7.2c2.4,0,3.4,0.2,4.2,1
	c0.8,0.8,1.2,2.2,1.3,6.5c0.1,1.5,0.1,3.3,0.1,5.7c0,8.4-0.3,10.6-1.4,11.6c-0.9,0.8-1.8,1-4.2,1H486.3z"/>
<path class="st1" d="M68.1,9.8c-3.3-5.6-9.4-9.3-16.4-9.3c-7,0-13,3.7-16.4,9.3c1.7,2.9,2.7,6.2,2.7,9.8c0,3.6-1,6.9-2.7,9.8
	c3.3,5.6,9.4,9.3,16.4,9.3c7,0,13-3.7,16.4-9.3c-1.7-2.9-2.7-6.2-2.7-9.8C65.4,16,66.4,12.6,68.1,9.8z"/>
<path class="st2" d="M35.4,9.8C32.1,4.2,26,0.5,19.1,0.5C8.5,0.5,0,9,0,19.6c0,10.5,8.5,19.1,19.1,19.1c7,0,13-3.7,16.4-9.3
	c-1.7-2.9-2.7-6.2-2.7-9.8C32.7,16,33.7,12.7,35.4,9.8z"/>
<path class="st3" d="M35.4,9.8c-1.7,2.9-2.7,6.2-2.7,9.8c0,3.6,1,6.9,2.7,9.8c1.7-2.9,2.7-6.2,2.7-9.8C38.2,16,37.1,12.7,35.4,9.8z"
	/>
<path class="st4" d="M84.5,0.5c-7,0-13,3.7-16.4,9.3c1.7,2.9,2.7,6.2,2.7,9.8c0,3.6-1,6.9-2.7,9.8c3.3,5.6,9.4,9.3,16.4,9.3
	c10.5,0,19.1-8.5,19.1-19.1C103.6,9,95,0.5,84.5,0.5z"/>
<path class="st5" d="M68.1,9.8c-1.7,2.9-2.7,6.2-2.7,9.8c0,3.6,1,6.9,2.7,9.8c1.7-2.9,2.7-6.2,2.7-9.8C70.9,16,69.9,12.6,68.1,9.8z"
	/>
</svg>
