<?xml version="1.0" encoding="utf-8"?>
<!-- Generator: Adobe Illustrator 19.0.0, SVG Export Plug-In . SVG Version: 6.00 Build 0)  -->
<svg version="1.1" id="Layer_1" xmlns="http://www.w3.org/2000/svg" xmlns:xlink="http://www.w3.org/1999/xlink" x="0px" y="0px"
	 viewBox="0 0 330.2 255.6" style="enable-background:new 0 0 330.2 255.6;" xml:space="preserve">
<style type="text/css">
	.st0{fill:#90c294;}
</style>
<path id="XMLID_28_" class="st0" d="M198.1,21.1C213,7,231.7,0,254.2,0c20,0,37.8,9.1,53.3,27.4c15.1,17.2,22.7,35.9,22.7,55.9
	c0,58.7-40.5,115.5-121.5,170.3c-2.9,2-10.1,3.7-14.3-1l-7.8-9.8c-3.8-6.4,0.8-12.3,3.8-14.8c14.1-11.7,24.3-20.7,30.7-27.1
	c12.5-13.2,21.8-26.4,27.9-39.5c1.4-3-2.2-4.9-4-5.5c-46.1-15.1-69.2-41.8-69.2-80C175.6,53.4,183.1,35.2,198.1,21.1z"/>
<path id="XMLID_27_" class="st0" d="M22.4,21.1C37.4,7,56.1,0,78.6,0c20,0,37.8,9.1,53.3,27.4c15.1,17.2,22.7,35.9,22.7,55.9
	c0,58.7-40.5,115.5-121.5,170.3c-2.9,2-10.1,3.7-14.3-1l-7.8-9.8c-3.8-6.4,0.8-12.3,3.8-14.8C28.7,216.4,39,207.3,45.4,201
	c12.5-13.2,21.8-26.4,27.9-39.5c1.4-3-2.2-4.9-4-5.5C23.1,140.8,0,114.1,0,76C0,53.4,7.5,35.2,22.4,21.1z"/>
</svg>
