<?xml version="1.0" encoding="utf-8"?>
<!-- Generator: Adobe Illustrator 19.0.0, SVG Export Plug-In . SVG Version: 6.00 Build 0)  -->
<svg version="1.1" id="Layer_1" xmlns="http://www.w3.org/2000/svg" xmlns:xlink="http://www.w3.org/1999/xlink" x="0px" y="0px"
	 viewBox="0 0 1393.3 357.2" style="enable-background:new 0 0 1393.3 357.2;" xml:space="preserve">
<style type="text/css">
	.st0{fill:#82C76E;}
	.st1{fill:#F58557;}
	.st2{fill:none;stroke:#82C76E;stroke-width:6.7892;stroke-linecap:round;stroke-miterlimit:10;}
	.st3{fill:none;stroke:#F58557;stroke-width:2.5505;stroke-linecap:round;stroke-miterlimit:10;}
	.st4{fill:none;stroke:#5DCBEE;stroke-width:6.5465;stroke-linecap:round;stroke-miterlimit:10;}
	.st5{fill:#5DCBEE;}
	.st6{fill:#E878B3;}
	.st7{fill:none;stroke:#FCDA06;stroke-width:7.6546;stroke-linecap:round;stroke-miterlimit:10;}
	.st8{fill:none;stroke:#FCDA06;stroke-width:5.983;stroke-linecap:round;stroke-miterlimit:10;}
	.st9{fill:none;stroke:#E878B3;stroke-width:4.039;stroke-linecap:round;stroke-miterlimit:10;}
	.st10{fill:#FCDA06;}
	.st11{fill:none;stroke:#FCDA06;stroke-width:9.8268;stroke-linecap:round;stroke-miterlimit:10;}
</style>
<g id="XMLID_14_">
	<path id="XMLID_252_" class="st0" d="M308.6,63c18,0,32.6,14.6,32.6,32.6c0,18-14.6,32.6-32.6,32.6c-18,0-32.6-14.6-32.6-32.6
		C276,77.6,290.6,63,308.6,63 M308.6,50.4c-25,0-45.3,20.3-45.3,45.3s20.3,45.3,45.3,45.3s45.3-20.3,45.3-45.3
		S333.6,50.4,308.6,50.4L308.6,50.4z"/>
</g>
<g id="XMLID_5_">
	<path id="XMLID_119_" class="st1" d="M603.4,181.2l27.9,19.9L611.4,229l-27.9-19.9L603.4,181.2 M603.4,173.5
		c-2.4,0-4.8,1.1-6.3,3.2l-19.9,27.9c-2.5,3.5-1.7,8.3,1.8,10.7l27.9,19.9c1.4,1,2.9,1.4,4.5,1.4c2.4,0,4.8-1.1,6.3-3.2l19.9-27.9
		c2.5-3.5,1.7-8.3-1.8-10.7l-27.9-19.9C606.5,174,604.9,173.5,603.4,173.5L603.4,173.5z"/>
</g>
<line id="XMLID_7_" class="st2" x1="816.1" y1="87.6" x2="798.8" y2="126.7"/>
<g id="XMLID_1_">
	<line id="XMLID_2_" class="st3" x1="452.6" y1="157.5" x2="459.6" y2="172"/>
	<line id="XMLID_12_" class="st3" x1="463.4" y1="161.2" x2="448.9" y2="168.2"/>
</g>
<g id="XMLID_3_">
	<path id="XMLID_209_" class="st0" d="M934.7,337.4l2.8,13.8l-13.8,2.8l-2.8-13.8L934.7,337.4 M934.7,334.3c-0.2,0-0.4,0-0.6,0.1
		l-13.8,2.8c-1.7,0.4-2.8,2-2.5,3.7l2.8,13.8c0.3,1.5,1.6,2.5,3.1,2.5c0.2,0,0.4,0,0.6-0.1l13.8-2.8c1.7-0.4,2.8-2,2.5-3.7
		l-2.8-13.8C937.5,335.3,936.2,334.3,934.7,334.3L934.7,334.3z"/>
</g>
<g id="XMLID_4_">
	<line id="XMLID_8_" class="st4" x1="568.1" y1="72" x2="609.2" y2="75.9"/>
	<line id="XMLID_6_" class="st4" x1="590.6" y1="53.4" x2="586.7" y2="94.5"/>
</g>
<g id="XMLID_10_">
	<path id="XMLID_250_" class="st5" d="M576.4,334.2c-6.8,0-12.3-5.5-12.3-12.3s5.5-12.3,12.3-12.3c6.8,0,12.3,5.5,12.3,12.3
		S583.1,334.2,576.4,334.2z"/>
	<path id="XMLID_247_" class="st5" d="M576.4,311.6c5.7,0,10.3,4.6,10.3,10.3s-4.6,10.3-10.3,10.3c-5.7,0-10.3-4.6-10.3-10.3
		S570.7,311.6,576.4,311.6 M576.4,307.6c-7.9,0-14.3,6.4-14.3,14.3s6.4,14.3,14.3,14.3c7.9,0,14.3-6.4,14.3-14.3
		S584.2,307.6,576.4,307.6L576.4,307.6z"/>
</g>
<g id="XMLID_17_">
	<path id="XMLID_245_" class="st1" d="M114.2,101.4c-3.5,0-6.3-2.8-6.3-6.3s2.8-6.3,6.3-6.3s6.3,2.8,6.3,6.3
		S117.7,101.4,114.2,101.4z"/>
	<path id="XMLID_240_" class="st1" d="M114.2,89.8c2.9,0,5.3,2.4,5.3,5.3s-2.4,5.3-5.3,5.3c-2.9,0-5.3-2.4-5.3-5.3
		S111.3,89.8,114.2,89.8 M114.2,87.8c-4,0-7.3,3.3-7.3,7.3s3.3,7.3,7.3,7.3c4,0,7.3-3.3,7.3-7.3S118.2,87.8,114.2,87.8L114.2,87.8z"
		/>
</g>
<g id="XMLID_18_">
	<path id="XMLID_237_" class="st6" d="M833.2,24.2c-0.5,0-0.9-0.2-1.3-0.5c-0.5-0.5-0.7-1.1-0.6-1.8l4-18.5c0.1-0.7,0.6-1.2,1.3-1.4
		c0.2-0.1,0.4-0.1,0.6-0.1c0.5,0,0.9,0.2,1.3,0.5l14,12.8c0.5,0.5,0.7,1.1,0.6,1.8c-0.1,0.7-0.6,1.2-1.3,1.4l-18.1,5.8
		C833.5,24.1,833.4,24.2,833.2,24.2z"/>
	<path id="XMLID_234_" class="st6" d="M837.2,3.8l14,12.8l-18.1,5.8L837.2,3.8 M837.2,0c-0.4,0-0.8,0.1-1.1,0.2
		c-1.3,0.4-2.2,1.5-2.5,2.8l-4,18.5c-0.3,1.3,0.1,2.7,1.1,3.6c0.7,0.6,1.6,1,2.5,1c0.4,0,0.8-0.1,1.1-0.2l18.1-5.8
		c1.3-0.4,2.2-1.5,2.5-2.8c0.3-1.3-0.2-2.7-1.1-3.6L839.7,1C839,0.3,838.1,0,837.2,0L837.2,0z"/>
</g>
<g id="XMLID_23_">
	<path id="XMLID_231_" class="st6" d="M1386,87.1c-3.5,0-6.3-2.8-6.3-6.3s2.8-6.3,6.3-6.3s6.3,2.8,6.3,6.3S1389.5,87.1,1386,87.1z"
		/>
	<path id="XMLID_224_" class="st6" d="M1386,75.6c2.9,0,5.3,2.4,5.3,5.3s-2.4,5.3-5.3,5.3s-5.3-2.4-5.3-5.3S1383.1,75.6,1386,75.6
		 M1386,73.6c-4,0-7.3,3.3-7.3,7.3s3.3,7.3,7.3,7.3s7.3-3.3,7.3-7.3S1390,73.6,1386,73.6L1386,73.6z"/>
</g>
<line id="XMLID_24_" class="st7" x1="308.8" y1="242.8" x2="344.2" y2="275.6"/>
<g id="XMLID_26_">
	<path id="XMLID_222_" class="st0" d="M1360.3,267.9c-0.1,0-0.2,0-0.3,0l-16.1-2.6c-0.6-0.1-1-0.5-1.3-1c-0.2-0.5-0.1-1.1,0.3-1.6
		l10.3-12.7c0.3-0.4,0.8-0.6,1.3-0.6c0.1,0,0.2,0,0.3,0c0.6,0.1,1,0.5,1.3,1l5.9,15.2c0.2,0.5,0.1,1.1-0.3,1.6
		C1361.2,267.7,1360.7,267.9,1360.3,267.9z"/>
	<path id="XMLID_218_" class="st0" d="M1354.4,251.1l5.9,15.2l-16.1-2.6L1354.4,251.1 M1354.4,247.8c-1,0-1.9,0.4-2.5,1.2
		l-10.3,12.7c-0.7,0.9-0.9,2.1-0.5,3.2s1.4,1.9,2.5,2l16.1,2.6c0.2,0,0.3,0,0.5,0c1,0,1.9-0.4,2.5-1.2c0.7-0.9,0.9-2.1,0.5-3.2
		l-5.9-15.2c-0.4-1.1-1.4-1.9-2.5-2C1354.7,247.9,1354.6,247.8,1354.4,247.8L1354.4,247.8z"/>
</g>
<g id="XMLID_27_">
	<path id="XMLID_102_" class="st1" d="M1068.6,123.1c7,0,12.6,5.6,12.6,12.6c0,7-5.6,12.6-12.6,12.6s-12.6-5.6-12.6-12.6
		C1056,128.7,1061.7,123.1,1068.6,123.1 M1068.6,118.2c-9.6,0-17.5,7.8-17.5,17.5c0,9.6,7.8,17.5,17.5,17.5s17.5-7.8,17.5-17.5
		C1086.1,126,1078.3,118.2,1068.6,118.2L1068.6,118.2z"/>
</g>
<line id="XMLID_28_" class="st8" x1="1133" y1="271.6" x2="1147.5" y2="306.4"/>
<g id="XMLID_33_">
	<line id="XMLID_37_" class="st9" x1="204.8" y1="307.2" x2="223.5" y2="324.4"/>
	<line id="XMLID_35_" class="st9" x1="222.8" y1="306.4" x2="205.5" y2="325.1"/>
</g>
<g id="XMLID_43_">
	<path id="XMLID_148_" class="st5" d="M1270.7,44.7l0.7,16.6l-16.6,0.7l-0.7-16.6L1270.7,44.7 M1270.7,41c-0.1,0-0.1,0-0.2,0
		l-16.6,0.7c-2.1,0.1-3.7,1.8-3.6,3.9l0.7,16.6c0,1,0.5,1.9,1.2,2.6c0.7,0.6,1.6,1,2.5,1c0.1,0,0.1,0,0.2,0l16.6-0.7
		c1,0,1.9-0.5,2.6-1.2c0.7-0.7,1-1.7,1-2.7l-0.7-16.6C1274.4,42.5,1272.7,41,1270.7,41L1270.7,41z"/>
</g>
<g id="XMLID_49_">
	<path id="XMLID_293_" class="st10" d="M1061.6,40.8c-5,0-9-4.1-9-9s4.1-9,9-9s9,4.1,9,9S1066.5,40.8,1061.6,40.8z"/>
	<path id="XMLID_290_" class="st10" d="M1061.6,24.2c4.2,0,7.6,3.4,7.6,7.6c0,4.2-3.4,7.6-7.6,7.6s-7.6-3.4-7.6-7.6
		C1054,27.5,1057.4,24.2,1061.6,24.2 M1061.6,21.2c-5.8,0-10.5,4.7-10.5,10.5c0,5.8,4.7,10.5,10.5,10.5s10.5-4.7,10.5-10.5
		C1072.1,25.9,1067.3,21.2,1061.6,21.2L1061.6,21.2z"/>
</g>
<g id="XMLID_54_">
	<path id="XMLID_208_" class="st5" d="M87.6,256.1c7,0,12.6,5.6,12.6,12.6c0,7-5.6,12.6-12.6,12.6c-7,0-12.6-5.6-12.6-12.6
		C75,261.7,80.7,256.1,87.6,256.1 M87.6,251.2c-9.6,0-17.5,7.8-17.5,17.5c0,9.6,7.8,17.5,17.5,17.5s17.5-7.8,17.5-17.5
		C105.1,259,97.3,251.2,87.6,251.2L87.6,251.2z"/>
</g>
<g id="XMLID_60_">
	<path id="XMLID_108_" class="st10" d="M3.1,179.2c-0.4,0-0.8-0.1-1.1-0.4c-0.4-0.4-0.6-1-0.4-1.5l3.7-15c0.1-0.5,0.5-0.9,1-1.1
		c0.2,0,0.3-0.1,0.5-0.1c0.4,0,0.7,0.1,1,0.4l11.7,10.1c0.4,0.4,0.6,0.9,0.5,1.5c-0.1,0.5-0.5,1-1,1.2l-15.4,4.9
		C3.4,179.1,3.3,179.2,3.1,179.2z"/>
	<path id="XMLID_105_" class="st10" d="M6.8,162.6l11.7,10.1l-15.4,4.9L6.8,162.6 M6.8,159.5c-0.3,0-0.6,0-0.9,0.1
		c-1,0.3-1.8,1.2-2.1,2.2l-3.7,15c-0.3,1.1,0.1,2.2,0.9,3c0.6,0.5,1.3,0.8,2.1,0.8c0.3,0,0.6,0,0.9-0.1l15.4-4.9
		c1.1-0.3,1.9-1.2,2.1-2.3c0.2-1.1-0.2-2.2-1-3L8.8,160.2C8.2,159.7,7.5,159.5,6.8,159.5L6.8,159.5z"/>
</g>
<g id="XMLID_34_">
	<line id="XMLID_38_" class="st11" x1="869.9" y1="226.8" x2="919.6" y2="263.6"/>
	<line id="XMLID_36_" class="st11" x1="913.2" y1="220.3" x2="876.3" y2="270"/>
</g>
</svg>
