<?xml version="1.0" encoding="utf-8"?>
<!-- Generator: Adobe Illustrator 19.0.0, SVG Export Plug-In . SVG Version: 6.00 Build 0)  -->
<svg version="1.1" id="Layer_2" xmlns="http://www.w3.org/2000/svg" xmlns:xlink="http://www.w3.org/1999/xlink" x="0px" y="0px"
	 viewBox="0 0 960 560" style="enable-background:new 0 0 960 560;" xml:space="preserve">
<style type="text/css">
	.st0{fill:#FEFEFE;}
</style>
<g id="XMLID_1_">
	<path id="XMLID_27_" d="M483.4,544.7c-46.2-0.3-88.8-8.1-128.7-27.8c-58-28.7-98-73.9-119.2-134.8c-22.8-65.5-23.6-132-0.9-197.6
		c29.1-84.1,88.8-136.3,174.9-157.2c62.8-15.2,125.3-12,185.2,13.2c77.4,32.6,124.4,91.7,143,172.9c13.9,60.7,10.7,121.1-13.2,179
		c-32.2,78-91.4,124.9-172.9,144.5C528.6,542.5,505.1,544.5,483.4,544.7z"/>
	<path id="XMLID_26_" class="st0" d="M482.1,34.1c42.4,0.3,83.1,8,121.1,27.4c53.8,27.4,90.9,70,110.7,127
		c21.2,61.3,21.8,123.6,0.7,184.8c-27.5,79.8-84.2,129-165.9,148.5c-57.4,13.7-114.7,11-169.7-11.3c-74-30-118.8-85.7-136.7-162.9
		c-13.1-56.8-10.5-113.4,11.2-167.9c30-75,86.1-120.2,164.2-138.7C438.8,36,460.4,34.2,482.1,34.1z"/>
	<path id="XMLID_25_" d="M585.1,323c5.4-3.9,6.9-9.3,7.6-15c1.1-9.3,2-18.5,3.1-27.8c0.3-2.4-0.2-3.2-2.8-3.2
		c-6,0.2-12,0.1-17.9,0.1c-0.5-1.6,0.1-2.8,0.5-4c1.1-3.1-0.3-7.7,2.4-9.2c2.5-1.3,6.5,0.1,9.8,0.2c8.7,0.2,8.6,0.2,10.3-8.2
		c1.1-5.6,2.9-10.9,6-15.8c6.9-10.6,22.7-15.2,34.2-9.9c6.4,2.9,9,9,6.3,15.2c-2.4,5.5-9.1,7.7-15.4,5.1c-3.9-1.7-5.1-4.9-5.4-9.1
		c-5.9,1.7-7.8,6.5-9.4,11.4c-3.9,11.5-3.8,11.5,8,11.4c6.6-0.1,13.3,0,20.3,0c-0.4,3.5-1.9,7.2-1.8,11.1c0,2.5-1.9,1.8-3.3,1.8
		c-7.3,0-14.7,0.2-22-0.1c-3.2-0.1-4.5,0.5-4.8,4.1c-1.1,11.4-2,22.9-4.9,34.1c-4.5,17.4-17.5,25.4-33.2,20.8
		c-4.6-1.4-8-4.1-9.2-8.9c-1.5-5.9,1.3-11.2,6.6-12.8c6.8-2,11.9,0.3,14.1,6.4C584.4,321.3,584.6,321.9,585.1,323z"/>
	<path id="XMLID_24_" d="M451.7,292.4c-3.9,4.1-6.7,8.6-10.7,12.2c-5.7,5.3-12.2,8.6-20.2,8.3c-9.3-0.3-14.6-6.8-13.3-16
		c1-6.8,4.6-12.4,7.7-18.3c1.9-3.5,4.1-6.9,4.7-10.9c0.2-1.3,0.5-2.7-0.8-3.7c-1.4-1.2-3-0.6-4.2,0.2c-2.4,1.7-4.5,3.8-6.9,5.8
		c-0.8-1.7-1.4-3.6-2.5-4.9c-3.9-4.4-1.8-7,2.3-9.6c5.4-3.4,11-5.4,17.4-4.9c8.1,0.7,12.3,5.6,11.6,13.7c-0.5,4.9-2.5,9.3-4.7,13.6
		c-2,4-4.1,8-5.8,12.1c-0.9,2.3-1.5,5,0.6,7c2.3,2.1,5,1.4,7.5,0.4c4.6-1.9,8-5.3,11.1-9.1c8.1-9.9,13.7-21.3,17.5-33.4
		c1.1-3.6,2.7-4.7,6.3-4.1c4.3,0.7,8.6,0.8,12.9,1.1c0.9,1.6-0.4,2.5-0.9,3.6c-4.4,9-8.6,18-12.1,27.4c-0.6,1.6-1.2,3.1-1.5,4.7
		c-0.7,3.4-3.4,7.6,0.4,10c3.5,2.2,6.3-1.5,8.9-3.7c0.4-0.3,0.9-0.5,1.3-0.8c0.9,2,1.5,4.2,2.8,5.8c3.6,4.5,1.4,6.7-2.6,9
		c-4.8,2.9-9.8,4.9-15.5,4.7c-8.9-0.3-13.7-5.8-12.7-14.8C450.9,296.3,451.3,294.3,451.7,292.4z"/>
	<path id="XMLID_23_" d="M319.5,269.5c-0.7-1.5-1.3-2.7-1.9-3.9c-3.5-6.7-3.5-6.6,3-11.1c5-3.4,10.4-5.1,16.5-4.6
		c7.1,0.6,10.8,4.5,11.2,11.5c0.3,6-1.5,11.5-3.5,17c-1.6,4.4-3.5,8.7-4.2,13.3c-0.8,4.8,1.1,6.9,6,6.8c1.3,0,2.7-0.1,4-0.5
		c14-4.5,23.3-13.9,28.8-27.4c-1.4-0.9-2.3-0.1-3.3,0c-5.9,0.8-9.6-1-11.1-5.2c-1.7-4.8,0.2-10.3,4.6-13.1
		c10.4-6.8,22.9-0.4,23.7,11.9c0.2,3.5-0.3,7-1.2,10.4c-5.6,20.8-29.1,38.6-50.7,38.5c-12.3-0.1-18.4-7.2-16.6-19.4
		c0.8-5.6,2.9-10.9,4.8-16.2c1-2.8,2-5.7,2.6-8.6c0.4-1.9,1.1-4.2-1-5.5c-2.3-1.4-4.5-0.2-6.3,1.4
		C323,266.1,321.5,267.6,319.5,269.5z"/>
	<path id="XMLID_22_" d="M499.3,255.3c-1.4-2.5-2.3-4.8-3.9-6.4c-4.2-4.1-2-6.2,1.9-8.7c8.3-5.3,16.7-10.3,26.7-11.8
		c13.6-2,20.1,4.9,16.7,18.3c-2.4,9.4-7.1,17.9-11.2,26.6c-2.6,5.5-5.6,11-6.7,17.1c-1.1,6.5,1.2,9.1,7.8,8.7
		c3.3-0.2,6.1-1.4,8.8-3.1c4-2.5,7.3-5.7,10.5-9.2c2.1-2.3,4.8-6.9,6.1-6.5c3,0.9,5.3,4.2,7.9,6.4c1,0.8,1.7,1.5,0.6,2.8
		c-10.9,12.6-22.8,23.5-41,23.4c-15-0.1-21.1-7.9-17.9-22.7c1.8-8,5.4-15.3,9-22.6c2.8-5.7,6-11.1,7.9-17.2c0.6-2.1,1.6-4.5-0.2-6.1
		c-1.9-1.8-4.5-1-6.6-0.1C509.6,246.8,504.7,251.2,499.3,255.3z"/>
</g>
<g id="XMLID_2_">
</g>
<g id="XMLID_3_">
</g>
<g id="XMLID_4_">
</g>
<g id="XMLID_5_">
</g>
<g id="XMLID_6_">
</g>
<g id="XMLID_7_">
</g>
<g id="XMLID_8_">
</g>
<g id="XMLID_9_">
</g>
<g id="XMLID_10_">
</g>
<g id="XMLID_11_">
</g>
<g id="XMLID_12_">
</g>
<g id="XMLID_13_">
</g>
<g id="XMLID_14_">
</g>
<g id="XMLID_15_">
</g>
<g id="XMLID_16_">
</g>
</svg>
