<?xml version="1.0" encoding="utf-8"?>
<!-- Generator: Adobe Illustrator 19.0.0, SVG Export Plug-In . SVG Version: 6.00 Build 0)  -->
<svg version="1.1" id="Layer_1" xmlns="http://www.w3.org/2000/svg" xmlns:xlink="http://www.w3.org/1999/xlink" x="0px" y="0px"
	 viewBox="-437 241.8 41.7 79.2" style="enable-background:new -437 241.8 41.7 79.2;" xml:space="preserve">
<style type="text/css">
	.st0{clip-path:url(#SVGID_2_);}
	.st1{fill:#222222;}
</style>
<g>
	<defs>
		<rect id="SVGID_1_" x="-437" y="241.8" width="41.7" height="79.2"/>
	</defs>
	<clipPath id="SVGID_2_">
		<use xlink:href="#SVGID_1_"  style="overflow:visible;"/>
	</clipPath>
	<g id="XMLID_86_" class="st0">
		<path id="XMLID_87_" class="st1" d="M-421,321c0.1-0.5,0.2-1,0.2-1.4c0.6-3.3,1.1-6.6,1.7-9.9c0.5-3.1,1.1-6.2,1.6-9.3
			c0.4-2.6,0.9-5.2,1.3-7.7c0.1-0.3-0.1-0.5-0.3-0.7c-2.8-2.7-5.6-5.5-8.4-8.2c-4-3.9-8-7.7-11.9-11.6c0,0-0.1-0.1-0.2-0.2
			c0.2,0,0.3-0.1,0.5-0.1c2.6-0.4,5.1-0.7,7.7-1.1c2.7-0.4,5.5-0.8,8.2-1.2c2.6-0.4,5.1-0.7,7.7-1.1c1.5-0.2,2.9-0.4,4.4-0.6
			c0.3,0,0.4-0.2,0.6-0.4c3.1-6.4,6.3-12.8,9.4-19.2c1-2,2-4.1,3-6.1c0.1-0.1,0.1-0.3,0.2-0.4c0.1,0.1,0.1,0.2,0.2,0.3
			c2.7,5.5,5.5,11.1,8.2,16.6c1.5,3,2.9,5.9,4.4,8.9c0.1,0.2,0.2,0.3,0.4,0.3c2.9,0.4,5.8,0.8,8.7,1.2c3.3,0.5,6.6,1,9.9,1.4
			c3.3,0.5,6.5,0.9,9.8,1.4c0,0,0.1,0,0.2,0c-0.1,0.1-0.3,0.3-0.4,0.4c-2.2,2.2-4.5,4.4-6.7,6.5c-3.4,3.3-6.7,6.5-10.1,9.8
			c-1.2,1.1-2.3,2.3-3.5,3.4c-0.2,0.2-0.2,0.3-0.2,0.6c0.5,2.7,1,5.5,1.4,8.2c0.4,2.5,0.8,4.9,1.3,7.4c0.5,2.6,0.9,5.2,1.4,7.9
			c0.3,1.5,0.5,3.1,0.8,4.6c0,0.1,0,0.2,0,0.3c-0.1-0.1-0.2-0.1-0.4-0.2c-8.3-4.4-16.7-8.7-25-13.1c-0.3-0.1-0.5-0.1-0.8,0
			c-8.3,4.4-16.6,8.8-24.9,13.1C-420.7,320.8-420.8,320.9-421,321z"/>
	</g>
</g>
</svg>
