<?xml version="1.0" encoding="utf-8"?>
<!-- Generator: Adobe Illustrator 19.0.0, SVG Export Plug-In . SVG Version: 6.00 Build 0)  -->
<svg version="1.1" id="Layer_1" xmlns="http://www.w3.org/2000/svg" xmlns:xlink="http://www.w3.org/1999/xlink" x="0px" y="0px"
	 viewBox="0 0 500.2 500.2" style="enable-background:new 0 0 500.2 500.2;" xml:space="preserve">
<style type="text/css">
	.st0{fill:#90C294;}
	.st1{fill:#EFF9F2;}
</style>
<g id="XMLID_1_">
	<path id="XMLID_20_" class="st0" d="M50.1,500.1c-16.7,0-33.3,0-50,0c0-165.2,0-330.3-0.1-495.5C0,0.8,0.8,0,4.6,0
		c163.7,0.1,327.3,0.1,491,0c3.7,0,4.6,0.8,4.6,4.6c-0.1,163.7-0.1,327.3,0,491c0,3.7-0.8,4.7-4.6,4.6c-15.2-0.2-30.3-0.1-45.5-0.1
		c0-40.1,0-80.3,0-120.4c0-3-0.5-5.9-0.9-8.9c-5.1-36.6-33.7-68.4-69.5-77.8c-14.5-3.8-29.3-3.6-44.1-3.9c-5.5-0.1-9.9,1.4-14.3,4.5
		c-19.5,13.5-41.3,20.7-64.8,22.4c-32.4,2.3-62.4-5.6-89.2-24.3c-1.6-1.1-3.2-2.4-5.4-2.4c-26.2-1.2-51.2,2.6-72.9,18.9
		c-24.9,18.8-38.7,43.6-39,75.1C49.8,422.1,50.1,461.1,50.1,500.1z M244.6,295.1c65.6,0.6,123.8-50.9,124.1-121.2
		c0.2-70.3-57.5-121.3-122.4-121.9c-66.8-0.7-125.9,51.4-124.9,123.7C122.3,241.9,176.8,295.1,244.6,295.1z"/>
	<path id="XMLID_19_" class="st1" d="M50.1,500.1c0-39-0.3-78,0-116.9c0.3-31.4,14.2-56.3,39-75.1c21.6-16.3,46.6-20.1,72.9-18.9
		c2.1,0.1,3.7,1.3,5.4,2.4c26.9,18.7,56.8,26.6,89.2,24.3c23.4-1.7,45.3-8.9,64.8-22.4c4.4-3.1,8.8-4.6,14.3-4.5
		c14.8,0.3,29.5,0.1,44.1,3.9c35.8,9.4,64.3,41.2,69.5,77.8c0.4,3,0.9,5.9,0.9,8.9c0,40.1,0,80.3,0,120.4
		C316.8,500.1,183.4,500.1,50.1,500.1z"/>
	<path id="XMLID_18_" class="st1" d="M244.6,295.1c-67.8-0.1-122.3-53.2-123.2-119.5c-1-72.4,58.1-124.4,124.9-123.7
		c64.9,0.7,122.6,51.6,122.4,121.9C368.4,244.2,310.2,295.8,244.6,295.1z"/>
</g>
</svg>
