<?xml version="1.0" encoding="utf-8"?>
<!-- Generator: Adobe Illustrator 19.0.0, SVG Export Plug-In . SVG Version: 6.00 Build 0)  -->
<svg version="1.1" id="Layer_1" xmlns="http://www.w3.org/2000/svg" xmlns:xlink="http://www.w3.org/1999/xlink" x="0px" y="0px"
	 viewBox="-47 170.7 500.2 500.2" style="enable-background:new -47 170.7 500.2 500.2;" xml:space="preserve">
<style type="text/css">
	.st0{fill:#EFF9F2;}
</style>
<g id="XMLID_1_">
	<path id="XMLID_19_" class="st0" d="M3.1,670.8c0-39-0.3-78,0-116.9c0.3-31.4,14.2-56.3,39-75.1c21.6-16.3,46.6-20.1,72.9-18.9
		c2.1,0.1,3.7,1.3,5.4,2.4c26.9,18.7,56.8,26.6,89.2,24.3c23.4-1.7,45.3-8.9,64.8-22.4c4.4-3.1,8.8-4.6,14.3-4.5
		c14.8,0.3,29.5,0.1,44.1,3.9c35.8,9.4,64.3,41.2,69.5,77.8c0.4,3,0.9,5.9,0.9,8.9c0,40.1,0,80.3,0,120.4
		C269.8,670.8,136.4,670.8,3.1,670.8z"/>
	<path id="XMLID_18_" class="st0" d="M197.6,465.8c-67.8-0.1-122.3-53.2-123.2-119.5c-1-72.4,58.1-124.4,124.9-123.7
		c64.9,0.7,122.6,51.6,122.4,121.9C321.4,414.9,263.2,466.5,197.6,465.8z"/>
</g>
</svg>
